<?xml version="1.0" encoding="UTF-8"?>
<svg id="Layer_2" data-name="Layer 2" xmlns="http://www.w3.org/2000/svg" viewBox="0 0 243.85 35.75">
  <defs>
    <style>
      .cls-1 {
        fill: #0154fb;
      }
    </style>
  </defs>
  <g id="Layer_1-2" data-name="Layer 1">
    <g>
      <g>
        <path class="cls-1" d="M0,32.1h9v-5.21l7.22,3.32c.56.3,1.12.56,1.7.78l.23.11s-.04-.02-.07-.04c6.03,2.28,13.1.79,17.66-4.3,5.91-6.61,5.34-16.76-1.27-22.67-1.71-1.53-3.66-2.63-5.71-3.29C26.88.18,24.93-.07,23,.02c-.24.01-.47.05-.7.07l-.04-.02-.51.08c-.29.04-.57.08-.86.13l-8.49,1.26c-3.37.16-6.67,1.62-9.09,4.33C1.32,8.08.24,10.8.04,13.57M33.46,24.73c-4.13,4.62-10.8,5.6-16,2.71-.25-.14-.5-.28-.74-.44-.57-.36-1.11-.78-1.63-1.24-.27-.25-.54-.5-.78-.77-.3-.32-.59-.65-.85-.99-3.76-4.86-3.64-11.87.6-16.61.92-1.03,1.97-1.88,3.11-2.55.92-.54,1.88-.96,2.88-1.25,2.26-.67,4.66-.71,6.95-.12,1.69.42,3.31,1.2,4.74,2.33.24.17.46.36.68.56,5.36,4.79,5.82,13.01,1.03,18.37Z"/>
        <path class="cls-1" d="M23.76,6.6c-1.92,0-3.71.58-5.19,1.58,1.58.52,2.73,2.04,2.73,3.82,0,2.23-1.81,4.05-4.05,4.05-1.13,0-2.13-.46-2.86-1.19-.06.4-.08.79-.08,1.21,0,5.21,4.23,9.45,9.45,9.45s9.45-4.23,9.45-9.45-4.23-9.47-9.45-9.47Z"/>
      </g>
      <g>
        <path d="M50.61,6.72h8.28c4.23,0,7.93,2.17,7.93,6.72s-3.44,7.08-8.32,7.08h-3.3v8.68h-4.59V6.72ZM55.2,16.92h3.01c2.44,0,3.96-.91,3.96-3.38,0-2.25-1.57-3.17-3.82-3.17h-3.15v6.55Z"/>
        <path d="M82.02,24.81c0,1.15.07,3.19.23,4.4h-3.91c-.13-.51-.23-1.53-.26-2.05-.71,1.38-2.3,2.35-4.75,2.35-4.2,0-5.69-2.62-5.69-5.19,0-3.06,2.12-5.58,8.01-5.58h2v-1.23c0-1.39-.43-2.47-2.42-2.47s-2.45,1.01-2.61,2.26h-4.31c.18-2.68,1.79-5.4,6.99-5.4,4.01,0,6.73,1.38,6.73,5.59v7.33ZM77.79,21.59h-2.07c-3.05,0-3.61,1.24-3.61,2.38s.69,2.15,2.39,2.15c2.66,0,3.29-1.77,3.29-4.17v-.36Z"/>
        <path d="M88.29,23.98c.19,1.45,1.23,2.29,2.91,2.29,1.58,0,2.41-.6,2.41-1.69s-.97-1.55-3.55-2.28c-4.52-1.27-5.57-2.86-5.57-5.28,0-2.14,1.35-5.14,6.46-5.14,4.51,0,6.41,2.31,6.61,5.16h-4.34c-.13-.92-.66-1.94-2.47-1.94-1.2,0-1.9.52-1.9,1.49,0,.9.68,1.34,3.12,1.96,4.63,1.2,6.03,2.88,6.03,5.59,0,3.49-2.91,5.34-6.92,5.34s-6.78-1.85-7.14-5.52h4.35Z"/>
        <path d="M103.64,23.98c.19,1.45,1.23,2.29,2.91,2.29,1.58,0,2.41-.6,2.41-1.69s-.97-1.55-3.55-2.28c-4.52-1.27-5.57-2.86-5.57-5.28,0-2.14,1.35-5.14,6.46-5.14,4.51,0,6.41,2.31,6.61,5.16h-4.34c-.13-.92-.66-1.94-2.47-1.94-1.2,0-1.9.52-1.9,1.49,0,.9.68,1.34,3.12,1.96,4.63,1.2,6.03,2.88,6.03,5.59,0,3.49-2.91,5.34-6.92,5.34s-6.78-1.85-7.14-5.52h4.35Z"/>
        <path d="M120.12,27.74v8.01h-4.43v-18.61c0-2.29.03-3.82-.04-4.92h4.34c.06.53.09,1.39.12,2.23.6-1.2,2.03-2.56,4.89-2.56,3.53,0,6.42,2.7,6.42,8.64,0,5.53-3.12,8.97-7.21,8.97-2.18,0-3.48-.74-4.1-1.76ZM126.9,20.6c0-3.65-1.42-5.06-3.47-5.06-2.69,0-3.52,1.5-3.52,5.21,0,3.27.77,5.16,3.38,5.16,2.36,0,3.6-1.82,3.6-5.31Z"/>
        <path d="M149.22,20.48c0,4.96-2.37,9.05-8.14,9.05s-7.99-4.36-7.99-8.95c0-4.23,2.4-8.68,8.22-8.68,5.47,0,7.91,3.98,7.91,8.58ZM137.62,20.46c0,3.62,1.25,5.57,3.63,5.57,2.23,0,3.47-1.94,3.47-5.53,0-3.37-1.16-5.12-3.6-5.12-2.26,0-3.5,1.97-3.5,5.07Z"/>
        <path d="M151.75,17.97c0-2.79,0-4.58-.07-5.75h4.34c.09.73.12,1.81.12,2.98.57-1.42,2.06-3.24,5.14-3.25v4.51c-3.5-.06-5.08,1.13-5.08,5.03v7.72h-4.46v-11.23Z"/>
        <path d="M163.17,12.22h2.39v-4.61h4.43v4.61h3.03v3.46h-3.03v8.72c0,1.17.28,1.65,1.66,1.65.41,0,.55,0,1.01-.07v3.08c-.87.28-2.11.32-2.73.32-3.28,0-4.38-1.32-4.38-4.48v-9.21h-2.39v-3.46Z"/>
        <path d="M178.58,22.57c.32,2.04,1.65,3.37,4.05,3.37,2.56,0,3.45-1.11,3.45-2.7,0-2.04-1.23-2.88-4.48-3.8-5.21-1.44-6.99-3.31-6.99-6.56,0-4.17,3.34-6.44,7.62-6.44,5.39,0,7.68,2.8,7.94,6.42h-4.5c-.28-1.66-1.09-2.92-3.48-2.92-2.02,0-3.01.94-3.01,2.5,0,1.68,1.13,2.15,4.31,3.08,5.74,1.68,7.25,3.97,7.25,7.2,0,3.67-2.43,6.8-8.32,6.8-4.91,0-8.09-2.47-8.37-6.93h4.53Z"/>
        <path d="M193.26,17.52c0-3.5-.03-4.55-.07-5.3h4.34c.06.3.16,1.4.15,2.19.69-1.32,2.3-2.52,4.73-2.52,3.56,0,5.37,2.27,5.37,6.18v11.13h-4.46v-10.28c0-1.92-.47-3.36-2.59-3.36s-3.02,1.18-3.02,4.16v9.48h-4.46v-11.69Z"/>
        <path d="M224.56,24.81c0,1.15.07,3.19.23,4.4h-3.91c-.13-.51-.23-1.53-.26-2.05-.71,1.38-2.3,2.35-4.75,2.35-4.2,0-5.69-2.62-5.69-5.19,0-3.06,2.12-5.58,8.01-5.58h2v-1.23c0-1.39-.43-2.47-2.42-2.47s-2.45,1.01-2.61,2.26h-4.31c.18-2.68,1.79-5.4,6.99-5.4,4.01,0,6.73,1.38,6.73,5.59v7.33ZM220.34,21.59h-2.07c-3.05,0-3.61,1.24-3.61,2.38s.69,2.15,2.39,2.15c2.66,0,3.29-1.77,3.29-4.17v-.36Z"/>
        <path d="M232.54,27.74v8.01h-4.43v-18.61c0-2.29.03-3.82-.04-4.92h4.34c.06.53.09,1.39.12,2.23.61-1.2,2.03-2.56,4.89-2.56,3.53,0,6.42,2.7,6.42,8.64,0,5.53-3.12,8.97-7.21,8.97-2.18,0-3.48-.74-4.1-1.76ZM239.32,20.6c0-3.65-1.42-5.06-3.47-5.06-2.69,0-3.52,1.5-3.52,5.21,0,3.27.77,5.16,3.38,5.16,2.36,0,3.61-1.82,3.61-5.31Z"/>
      </g>
    </g>
  </g>
</svg>